<svg xmlns="http://www.w3.org/2000/svg" viewBox="0 -0.5 64 64" shape-rendering="crispEdges">
<metadata>Made with Pixels to Svg https://codepen.io/shshaw/pen/XbxvNj</metadata>
<path stroke="#ffffff" d="M26 0h12M26 1h12M26 2h12M26 3h12M26 4h12M26 5h12M26 6h12M26 7h12M26 8h12M26 9h12M26 10h12M26 11h12M26 12h12M26 13h12M26 14h12M26 15h12M26 16h12M26 17h12M26 18h12M26 19h12M26 20h12M26 21h12M26 22h12M26 23h12M26 24h12M0 25h64M0 26h64M0 27h64M0 28h64M0 29h64M0 30h64M0 31h64M0 32h64M0 33h64M0 34h64M0 35h64M0 36h64M26 37h12M26 38h12M26 39h12M26 40h12M26 41h12M26 42h12M26 43h12M26 44h12M26 45h12M26 46h12M26 47h12M26 48h12M26 49h12M26 50h12M26 51h12M26 52h12M26 53h12M26 54h12M26 55h12M26 56h12M26 57h12M26 58h12M26 59h12M26 60h12M26 61h12M26 62h12M26 63h12" />
</svg>